<?xml version="1.0" encoding="utf-8"?>
<!-- Generator: Adobe Illustrator 28.2.0, SVG Export Plug-In . SVG Version: 6.00 Build 0)  -->
<svg version="1.1" id="Layer_1" xmlns="http://www.w3.org/2000/svg" xmlns:xlink="http://www.w3.org/1999/xlink" x="0px" y="0px"
	 viewBox="0 0 1920 1080" style="enable-background:new 0 0 1920 1080;" xml:space="preserve">
<style type="text/css">
	.st0{fill:#FFFFFF;}
	.st1{fill:#FAA41A;}
	.st2{display:none;}
	.st3{display:inline;fill:#FAA41A;}
</style>
<g>
	<path class="st0" d="M653.86,754.53c-0.53,2.51-2.97,4.1-5.47,3.55l-0.69-0.15c-2.48-0.55-4.08-2.99-3.55-5.47l109.57-515.49
		c0.53-2.51,2.97-4.1,5.47-3.55l0.69,0.15c2.48,0.55,4.08,2.99,3.55,5.47L653.86,754.53L653.86,754.53z"/>
	<path class="st1" d="M625.2,487.76c0,124.3-110.41,225.07-246.55,225.07S132.1,612.06,132.1,487.76
		c0-124.3,110.41-225.07,246.55-225.07S625.2,363.47,625.2,487.76 M418.32,621.33l-1.82-23.3c-0.18-2.17,0.84-3.37,3.02-3.51
		c58.75-3.99,131.44-38.96,129.49-104.81c-2.17-73.71-70.07-96.34-130.02-104.5c-1.46-0.22-2.22-1.07-2.22-2.57
		c-0.13-21.66,0.31-43.31,1.33-64.92c0.53-12.11-11.09-13.22-20.37-10.07c-30.44,10.34-61.64,17.48-93.54,21.52
		c-7.63,0.98-12.74,3.2-13.71,10.96c-0.75,6.08,3.46,11.67,9.5,12.6l29.82,4.44c8.12,1.2,12.2,5.95,12.2,14.16l-0.27,184.07
		c-0.04,1.33,0.62,2.09,1.95,2.22c23.39,2.71,46.73,2.71,70.07,0c1.91-0.22,3.33-1.82,3.33-3.73l-0.27-137.65
		c-0.04-1.38,0.67-2.04,2.04-1.91c36.17,2.88,56.18,22.14,60,57.73c7.81,73.31-23.47,94.39-90.44,98.42
		c-35.19,2.09-93.14-4.04-104.59-45.31c-11.36-40.87-6.79-99.13,45.44-108.76c1.6-0.27,2.71-1.73,2.62-3.37l-1.55-23.21
		c-0.13-1.6-0.98-2.31-2.57-2.17c-29.33,2.66-55.69,12.11-79.08,28.4c-51.3,35.68-51.48,112.09,0.09,147.59
		c25.78,17.71,55.42,28.05,89.02,31.02c1.29,0.13,2.13,0.8,2.53,2.09c11.45,36.3-19.7,29.78-40.29,33.15
		c-6.08,1.02-10.07,6.92-8.79,12.96c2.84,13.22,14.2,8.88,23.12,8.83c43.8-0.13,87.55-0.09,131.26,0.04
		c6.79,0.04,16.06,3.86,20.24-5.55c2.84-6.43,1.64-11.67-3.64-15.62c-0.31-0.22-0.62-0.35-0.98-0.4l-37.99-3.82
		C420.58,626.08,418.54,624,418.32,621.33L418.32,621.33z"/>
	<g>
		<path class="st0" d="M883.28,365.36c-9.52-0.13-11.79,0-22.11,0.4l-0.8-0.8c0.27-17.56,0.4-34.98,0.4-52.54
			c0-12.87,0-20.24-0.67-40.88l0.67-0.8c9.25,0.13,12.06,0.13,22.25-0.4l0.8,0.8c-0.4,11.93-0.54,23.72-0.54,35.52
			c0,19.43,0.13,38.73,0.8,57.9L883.28,365.36z"/>
		<path class="st0" d="M930.86,324.21v24.39h5.49c14.61-0.27,17.96-0.27,23.86-0.67l0.8,0.8c-0.54,6.97-0.67,8.58-0.94,15.82
			l-0.8,0.8h-21.44c-16.75,0-20.37,0-28.82,0.4l-0.67-0.8c0.27-10.59,0.4-18.09,0.4-35.38c0-19.17-0.13-43.96-0.94-58.17l0.67-0.8
			c16.75,0.13,34.58,0.13,50.26-0.27l0.67,0.67c-0.54,6.43-0.54,8.18-0.8,14.88l-0.8,0.8h-2.41c-4.02,0-8.18-0.13-12.2-0.13h-7.77
			h-4.96c0,9.52,0,11.93,0.13,22.25h5.76c6.97,0,11.12-0.13,20.24-0.4l0.8,0.8c-0.54,6.83-0.54,7.77-0.8,14.34l-0.8,0.8
			c-6.43-0.13-12.87-0.13-19.3-0.13H930.86z"/>
		<path class="st0" d="M1003.9,324.21v24.39h5.49c14.61-0.27,17.96-0.27,23.86-0.67l0.8,0.8c-0.54,6.97-0.67,8.58-0.94,15.82
			l-0.8,0.8h-21.44c-16.75,0-20.37,0-28.82,0.4l-0.67-0.8c0.27-10.59,0.4-18.09,0.4-35.38c0-19.17-0.13-43.96-0.94-58.17l0.67-0.8
			c16.75,0.13,34.58,0.13,50.26-0.27l0.67,0.67c-0.54,6.43-0.54,8.18-0.8,14.88l-0.8,0.8h-2.41c-4.02,0-8.18-0.13-12.2-0.13h-7.77
			h-4.96c0,9.52,0,11.93,0.13,22.25h5.76c6.97,0,11.12-0.13,20.24-0.4l0.8,0.8c-0.54,6.83-0.54,7.77-0.8,14.34l-0.8,0.8
			c-6.43-0.13-12.87-0.13-19.3-0.13H1003.9z"/>
		<path class="st0" d="M1076.95,324.21v24.39h5.49c14.61-0.27,17.96-0.27,23.86-0.67l0.8,0.8c-0.54,6.97-0.67,8.58-0.94,15.82
			l-0.8,0.8h-21.44c-16.75,0-20.37,0-28.82,0.4l-0.67-0.8c0.27-10.59,0.4-18.09,0.4-35.38c0-19.17-0.13-43.96-0.94-58.17l0.67-0.8
			c16.75,0.13,34.58,0.13,50.26-0.27l0.67,0.67c-0.54,6.43-0.54,8.18-0.8,14.88l-0.8,0.8h-2.41c-4.02,0-8.18-0.13-12.2-0.13h-7.77
			h-4.96c0,9.52,0,11.93,0.13,22.25h5.76c6.97,0,11.12-0.13,20.24-0.4l0.8,0.8c-0.54,6.83-0.54,7.77-0.8,14.34l-0.8,0.8
			c-6.43-0.13-12.87-0.13-19.3-0.13H1076.95z"/>
	</g>
	<path class="st0" d="M917.45,519.05c-52.67,48.01-134.59,3.68-111.07-66.07c15.53-46.02,75.84-55.74,111.03-23.25
		c1.2,1.11,1.29,2.35,0.27,3.64l-11.76,14.91c-1.51,1.91-4.35,2.13-6.12,0.4c-47.35-45.97-98.38,33.77-46.9,61.37
		c18.99,10.16,31.68,0.84,48.77-9.01c1.11-0.62,2.44-0.4,3.28,0.53l12.69,13.67C918.83,516.56,918.78,517.85,917.45,519.05
		L917.45,519.05z"/>
	<path class="st0" d="M1061.93,473.77c0.68,35.82-29.01,65.46-66.33,66.16c-37.32,0.72-68.12-27.72-68.82-63.57
		c-0.68-35.82,29.01-65.46,66.33-66.16C1030.43,409.49,1061.23,437.93,1061.93,473.77 M1033.67,475.03
		c0-21.61-17.53-39.14-39.14-39.14s-39.14,17.53-39.14,39.14s17.53,39.14,39.14,39.14S1033.67,496.64,1033.67,475.03L1033.67,475.03
		z"/>
	<path class="st0" d="M1155.08,486.52l36.39-72.42c0.62-1.29,1.95-2.09,3.37-2.09h25.78c1.77,0,2.66,0.89,2.66,2.66l1.15,120.52
		c0,1.2-0.93,2.13-2.13,2.13l-19.92,0.09c-2.66,0.04-4.79-2.13-4.75-4.79l1.55-76.24c0.04-1.6-2.09-2.09-2.8-0.67l-30.49,62.66
		c-5.15,10.56-20.19,10.61-25.38,0.04l-30.8-62.52c-0.44-0.93-1.86-0.62-1.86,0.4l0.4,78.77c0,1.55-0.75,2.31-2.26,2.31h-20.06
		c-2.22,0-3.33-1.11-3.33-3.33V414.77c0-1.82,0.93-2.75,2.8-2.75h25.87c1.55,0,2.66,0.71,3.37,2.09l36.92,72.42
		C1152.78,488.83,1153.93,488.83,1155.08,486.52L1155.08,486.52z"/>
	<path class="st0" d="M1281.15,504.14l1.46,30.13c0.09,2.22-1.73,4.04-3.95,3.9l-23.16-1.11c-1.38-0.04-2.04-0.75-2.04-2.13v-120.7
		c0-1.55,0.75-2.31,2.31-2.31c32.39,0.04,103.93-11.98,100.73,48.06c-2.35,43.71-40.12,41.22-73.31,41.98
		C1281.78,502.01,1281.11,502.72,1281.15,504.14 M1281.33,436.95l-0.27,39.76c0,1.02,0.8,1.82,1.82,1.82l24.05,0.18
		c12.69,0.09,23.08-9.01,23.16-20.37v-2.31c0.09-11.36-10.16-20.63-22.9-20.72l-24.05-0.18
		C1282.17,435.13,1281.33,435.98,1281.33,436.95L1281.33,436.95z"/>
	<path class="st0" d="M1486.08,498.19c-4.48,48.72-85.2,54.89-105.08,14.87c-10.96-22.05-5.5-71.8-5.55-97.36
		c0-1.82,0.89-2.75,2.71-2.84l22.1-1.07c1.95-0.13,2.93,0.8,2.93,2.8c0.09,20.32-4.93,72.29,4.97,88.31
		c14.16,22.9,49.52,13,49.97-15.75c0.35-24.27,0.58-48.55,0.71-72.82c0-1.55,0.75-2.31,2.31-2.31h22.9c1.91,0,2.93,0.93,2.97,2.84
		C1488.34,449.29,1488.03,477.07,1486.08,498.19L1486.08,498.19z"/>
	<path class="st0" d="M1568.53,438.68v97c0,1.29-1.07,2.31-2.35,2.26l-24.32-0.8c-1.2-0.04-2.17-1.06-2.17-2.26v-96.25
		c0-1.24-1.02-2.26-2.26-2.26l-33.19,0.04c-1.24,0-2.26-1.02-2.26-2.26v-19.88c0-1.24,1.02-2.26,2.26-2.26h100.95
		c1.29,0,2.31,1.02,2.26,2.31l-0.27,19.88c-0.04,1.24-1.02,2.22-2.26,2.22h-34.12C1569.55,436.42,1568.53,437.44,1568.53,438.68
		L1568.53,438.68z"/>
	<path class="st0" d="M1653.51,463.27l57.69-0.36c0.84,0,1.55,0.71,1.55,1.55v20.32c0,0.84-0.71,1.55-1.55,1.55h-57.91
		c-0.84,0-1.55,0.71-1.55,1.55v24.89c0,0.84,0.71,1.55,1.55,1.55l67.14-0.4c0.84,0,1.55,0.71,1.55,1.55v20.32
		c0,0.84-0.71,1.55-1.55,1.55h-94.87c-0.84,0-1.55-0.71-1.55-1.55V413.57c0-0.84,0.71-1.55,1.55-1.55h92.3
		c0.84,0,1.55,0.71,1.55,1.55v20.55c0,0.84-0.71,1.55-1.55,1.55l-63.99-0.53c-0.84,0-1.55,0.71-1.55,1.55l-0.35,24.98
		C1651.91,462.56,1652.62,463.27,1653.51,463.27L1653.51,463.27z"/>
	<path class="st0" d="M1773.45,504.32l1.51,30.18c0.09,1.55-1.2,2.88-2.75,2.88h-23.96c-1.46,0-2.22-0.75-2.22-2.22v-119.9
		c0-1.82,0.93-2.8,2.75-2.88c40.38-1.78,109.25-10.07,102.77,52.85c-1.33,12.82-8.48,22.81-21.39,29.91
		c-1.15,0.67-1.55,2.17-0.8,3.33l24.14,36.17c0.8,1.2-0.04,2.75-1.46,2.75h-26.23c-1.46,0-2.8-0.8-3.51-2.04l-17.97-31.51
		c-0.71-1.29-1.82-1.95-3.33-1.95h-25.25C1774.12,501.88,1773.37,502.67,1773.45,504.32 M1774.03,436.73l-0.18,40.38
		c0,0.8,0.67,1.42,1.42,1.42l26.31,0.09c13.4,0.04,24.32-9.27,24.36-20.81v-1.42c0.04-11.54-10.78-20.95-24.18-20.99l-26.31-0.09
		C1774.65,435.31,1774.03,435.93,1774.03,436.73L1774.03,436.73z"/>
	<path class="st0" d="M830.61,688.61c11.58-19.48-41.36-27.16-51.96-35.06c-18.95-14.02-17.22-40.43,1.02-54.09
		c22.19-16.55,57.16-10.47,79.56,2.71c1.38,0.84,1.77,2,1.11,3.46l-8.56,19.35c-0.67,1.55-1.73,1.91-3.2,0.98
		c-13.8-8.96-28.89-12.69-45.35-11.14c-1.33,0.13-2.62,0.75-3.55,1.69c-8.39,8.39-4.26,15.71,5.37,19.26
		c15.44,5.68,45.84,12.74,53.47,28.4c10.87,22.23-2,46.02-25.25,52.14c-26.49,7.01-50.99,1.73-73.4-15.89
		c-1.2-0.98-1.55-2.62-0.89-3.95l9.27-18.46c0.53-1.07,1.91-1.33,2.84-0.58C782.91,687.54,820.49,705.56,830.61,688.61
		L830.61,688.61z"/>
	<path class="st0" d="M1032.47,614.77c25.43-32.48,71.58-32.39,101-5.9c1.29,1.2,1.38,2.44,0.27,3.77l-14.29,17.17
		c-0.8,0.93-2.22,0.93-3.02,0c-38.56-46.28-97.58,20.59-54.27,54.4c17.22,13.4,35.46,12.03,54.71-4.08c1.2-1.02,2.35-0.93,3.46,0.22
		l13.18,14.16c1.29,1.38,1.24,2.71-0.13,3.99c-23.92,22.41-58.53,27.78-86.13,9.94C1016.45,688.56,1009.58,643.96,1032.47,614.77
		L1032.47,614.77z"/>
	<path class="st0" d="M1009.97,655.25c-0.31,35.84-30.84,64.6-68.15,64.28c-37.33-0.31-67.33-29.64-67.01-65.46
		c0.31-35.84,30.84-64.6,68.15-64.28C980.29,590.09,1010.29,619.43,1009.97,655.25 M941.84,694.59
		c21.23,0.5,38.89-16.99,39.37-39.01c0.5-22.04-16.32-40.28-37.56-40.76c-21.23-0.5-38.89,16.99-39.37,39.01
		C903.79,675.87,920.6,694.11,941.84,694.59L941.84,694.59z"/>
	<path class="st0" d="M1182.42,715.9c0,1.29-1.06,2.35-2.35,2.35h-22.99c-1.29,0-2.35-1.07-2.35-2.35V593.42
		c0-1.29,1.06-2.35,2.35-2.35h22.99c1.29,0,2.35,1.07,2.35,2.35V715.9L1182.42,715.9z"/>
	<path class="st0" d="M1241.7,642.77h57.91c0.84,0,1.55,0.71,1.55,1.55v20.5c0,0.84-0.71,1.55-1.55,1.55l-57.91-0.44
		c-0.84,0-1.55,0.71-1.55,1.55v25.07c0,0.84,0.71,1.55,1.55,1.55l66.78-0.62c0.84,0,1.55,0.71,1.55,1.55v20.46
		c0,0.84-0.71,1.55-1.55,1.55l-94.52,0.18c-0.84,0-1.55-0.71-1.55-1.55V592.13c0-0.84,0.71-1.55,1.55-1.55l92.3,0.49
		c0.84,0,1.55,0.71,1.55,1.55v21.21c0,0.84-0.71,1.55-1.55,1.55l-64.57-0.53c-0.84,0-1.55,0.71-1.55,1.55v24.81
		C1240.15,642.06,1240.86,642.77,1241.7,642.77L1241.7,642.77z"/>
	<path class="st0" d="M1387.43,617.61l0.89,97.89c0,1.29-1.06,2.35-2.35,2.4l-23.56,0.44c-1.33,0.04-2.44-1.07-2.44-2.4v-97.85
		c0-1.33-1.11-2.44-2.44-2.4l-32.84,0.67c-1.33,0.04-2.44-1.07-2.44-2.4v-20.06c0-1.33,1.06-2.4,2.4-2.4l99.45,0.36
		c1.33,0,2.4,1.07,2.4,2.4l0.09,18.99c0,1.33-1.11,2.44-2.44,2.4l-34.26-0.44C1388.54,615.17,1387.43,616.27,1387.43,617.61
		L1387.43,617.61z"/>
	<path class="st0" d="M1491.63,645.96l28.67-51.43c1.07-1.95,3.11-3.15,5.33-3.15l21.26,0.04c1.64,0,2.66,1.73,1.91,3.15
		c-13.14,24.36-26.49,48.86-40.03,73.53c-7.68,13.98-4.53,32.44-4.62,47.88c0,1.24-0.98,2.22-2.22,2.22h-21.3
		c-3.2,0-5.72-2.66-5.59-5.86l1.42-31.73c0.09-1.6-0.27-3.11-1.02-4.48l-44.02-81.56c-1.02-1.91-0.49-2.84,1.69-2.84h22.41
		c1.55,0,2.75,0.67,3.51,2.04l29.55,52.19C1489.58,647.78,1490.61,647.78,1491.63,645.96L1491.63,645.96z"/>
	<g class="st2">
		<path class="st3" d="M1356.46,816.38c0.27,14.76-11.49,26.96-26.29,27.22l-5.06,0.09c-14.76,0.27-26.96-11.53-27.22-26.29
			l-0.18-10.38c-0.27-14.76,11.49-26.96,26.29-27.22l5.06-0.09c14.76-0.27,26.96,11.53,27.22,26.29L1356.46,816.38 M1326.52,833.58
			c8.99,0.14,16.45-9.36,16.62-21.26c0.18-11.88-6.96-21.64-15.95-21.77c-8.99-0.14-16.45,9.36-16.62,21.26
			C1310.4,823.68,1317.54,833.45,1326.52,833.58L1326.52,833.58z"/>
		<path class="st3" d="M807.14,834.73c-10.47,14.29-44.02,13.22-45.31-10.38c-0.75-13.45-1.07-27.07-1.02-40.78
			c0-1.77,1.42-3.2,3.2-3.2h7.14c2,0,3.02,1.02,3.06,3.06c0.04,13.45,0.04,26.85,0,40.2c-0.04,12.43,24.14,15,24.32-3.2
			c0.09-12.07,0.13-24.18,0.09-36.34c-0.04-1.95,0.93-3.02,2.88-3.2l7.59-0.75c2-0.22,2.97,0.71,2.93,2.71
			C811.75,797.46,815.48,823.42,807.14,834.73L807.14,834.73z"/>
		<path class="st3" d="M838.82,799.99l0.49,42.25c0,0.8-0.67,1.46-1.46,1.42l-9.01-0.22c-0.75-0.04-1.38-0.67-1.38-1.42v-60.44
			c0-0.8,0.67-1.42,1.46-1.42l14.69,0.49c0.49,0.04,0.93,0.31,1.2,0.75l24.54,44.06c0.71,1.29,2.71,0.75,2.66-0.71l-0.62-42.87
			c0-0.8,0.62-1.42,1.42-1.46l8.65-0.13c0.8-0.04,1.46,0.62,1.46,1.42v60.48c0,0.8-0.62,1.42-1.42,1.42l-14.69-0.13
			c-0.53,0-0.98-0.27-1.24-0.71l-24.1-43.49C840.77,797.99,838.82,798.48,838.82,799.99L838.82,799.99z"/>
		<path class="st3" d="M912.04,840.62c-0.01,1.61-1.29,2.9-2.88,2.89l-7.72,0.01c-1.61-0.01-2.9-1.29-2.89-2.88l-0.1-57.15
			c0.01-1.61,1.29-2.9,2.88-2.89l7.72-0.01c1.61,0.01,2.9,1.29,2.89,2.88L912.04,840.62L912.04,840.62z"/>
		<path class="st3" d="M949.23,827.19c4.62-12.29,8.39-24.85,11.36-37.67c1.77-7.63,6.03-11.8,13.76-8.39
			c1.42,0.67,1.86,1.73,1.38,3.2L957.7,838.2c-2.93,8.74-15.31,8.74-18.24,0l-17.84-52.67c-0.89-2.62,1.11-5.28,3.86-5.24l5.41,0.13
			c1.86,0.04,3.06,0.98,3.59,2.8l12.91,43.89C947.94,828.92,948.56,828.97,949.23,827.19L949.23,827.19z"/>
		<path class="st3" d="M1002.34,833.45c6.12-1.38,11.4-1.73,15.84-0.98c2.84,0.49,4.88,3.11,4.62,5.99c-0.22,2.88-2.66,5.1-5.55,5.1
			h-29.51c-1.51,0-2.75-1.24-2.75-2.8v-57.51c0-1.6,1.29-2.88,2.88-2.88l30.49-0.04c1.86-0.04,3.37,1.55,3.28,3.42l-0.18,4.84
			c-0.04,1.55-1.33,2.8-2.88,2.8l-16.86,0.09c-1.91,0.04-3.42,1.55-3.42,3.46v8.12c0,1.51,1.29,2.71,2.8,2.57l13.85-1.11
			c1.69-0.13,3.06,0.49,4.08,1.78c1.91,2.44,1.91,5.1,0,7.9c-0.89,1.33-2.13,1.95-3.73,1.91l-14.11-0.35
			c-1.6-0.04-2.88,1.2-2.88,2.8v11.67C998.31,832.34,1000.26,833.89,1002.34,833.45L1002.34,833.45z"/>
		<path class="st3" d="M1055.73,820.05c-2.17-3.42-7.5-1.91-7.5,2.17v18.59c0,1.82-0.93,2.75-2.8,2.75h-7.19
			c-2.22,0-3.33-1.11-3.33-3.33v-56.62c0-1.46,0.75-2.35,2.22-2.57c15.22-2.44,42.64-1.69,41.4,19.53c-0.4,7.14-4.48,10.56-9.63,15
			c-1.02,0.89-1.24,2.4-0.49,3.55l14.95,21.83c0.8,1.2-0.09,2.8-1.51,2.71l-9.19-0.53c-1.55-0.09-2.71-0.8-3.55-2.09L1055.73,820.05
			 M1048.36,794.22l-0.27,11.36c-0.04,1.64,1.29,3.02,2.97,3.06l2.8,0.09c5.99,0.13,10.92-3.28,11.05-7.63v-1.69
			c0.13-4.3-4.66-7.94-10.69-8.08l-2.8-0.09C1049.78,791.2,1048.41,792.53,1048.36,794.22L1048.36,794.22z"/>
		<path class="st3" d="M1114.39,821.64c-10.3-6.21-25.25-10.34-25.12-24.63c0.22-18.24,23.83-19.04,37.41-14.2
			c2.04,0.71,2.66,2.09,1.82,4.13l-2.4,5.64c-0.49,1.2-1.82,1.73-3.02,1.24c-5.1-2.22-10.3-2.93-15.62-2.17
			c-4.35,0.62-6.04,5.95-2.88,9.01c9.76,9.45,25.16,8.96,25.2,26.4c0.04,18.42-25.87,19.66-38.34,14.2
			c-5.64-2.44-3.99-10.87,2.17-11.01c6.74-0.18,13.85,8.21,21.83,0.04C1117.99,827.72,1117.45,823.51,1114.39,821.64L1114.39,821.64
			z"/>
		<path class="st3" d="M1154.83,840.61c-0.01,1.53-1.25,2.82-2.79,2.81l-7.81,0.03c-1.53-0.01-2.82-1.26-2.81-2.79l-0.2-57.42
			c0.01-1.53,1.25-2.82,2.79-2.81l7.81-0.03c1.53,0.01,2.82,1.26,2.81,2.79L1154.83,840.61L1154.83,840.61z"/>
		<path class="st3" d="M1179,791.34l-11.09,0.67c-1.82,0.13-2.8-0.75-2.93-2.57l-0.35-6.17c-0.09-1.6,1.15-2.93,2.75-2.93h38.83
			c3.28,0,5.95,2.62,5.99,5.9c0.04,3.24-2.53,5.95-5.81,6.08l-9.58,0.35c-1.42,0.04-2.13,0.8-2.13,2.17v46.55
			c0,1.51-0.75,2.26-2.26,2.22l-8.3-0.13c-1.6-0.04-2.93-1.38-2.88-2.97l0.4-46.64C1181.66,792.44,1180.42,791.25,1179,791.34
			L1179,791.34z"/>
		<path class="st3" d="M1242.77,804.29l10.16-20.9c0.84-1.73,2.26-2.66,4.17-2.75l8.34-0.44c2.8-0.13,3.51,1.02,2.13,3.46
			c-5.37,9.54-10.65,18.99-15.89,28.36c-5.46,9.67-3.91,18.5-3.73,29.07c0.04,1.73-0.8,2.57-2.49,2.53l-8.03-0.13
			c-1.6-0.04-2.84-1.29-2.84-2.88v-18.82c0-1.55-0.35-3.02-1.11-4.39l-18.06-33.86c-0.8-1.51,0.31-3.28,2-3.24l9.23,0.31
			c1.42,0.04,2.71,0.89,3.28,2.17l9.67,21.48C1240.2,805.58,1242.1,805.62,1242.77,804.29L1242.77,804.29z"/>
		<path class="st3" d="M1382.15,821.38v19.97c0,1.46-0.75,2.22-2.22,2.22h-8.16c-1.6,0-2.93-1.29-2.93-2.88v-55.96
			c0-2.35,1.91-4.26,4.26-4.3c9.19-0.13,18.86-0.22,29.02-0.27c2.17,0,3.33,2.17,3.46,6.52c0.09,2.57-2,4.75-4.57,4.75h-15.53
			c-1.82,0-3.33,1.51-3.33,3.33v10.92c0,1.64,0.84,2.49,2.49,2.44c5.64-0.13,11.4-0.09,17.31,0.09c3.02,0.09,5.01,2.57,4.48,5.55
			c-0.58,3.02-3.46,5.41-6.52,5.41h-15.53C1382.91,819.16,1382.15,819.91,1382.15,821.38L1382.15,821.38z"/>
		<path class="st3" d="M1445.34,780.82c2.17-0.84,4.35-0.98,6.61-0.31c1.33,0.4,2.22,1.6,2.22,2.97
			c0.22,21.7,10.92,81.96-24.45,78.32c-1.55-0.13-2.75-1.38-2.84-2.93l-0.49-6.04c-0.13-1.82,1.55-3.24,3.33-2.84
			c7.1,1.55,10.69-1.33,10.78-8.65c0.22-19.48,0.4-38.92,0.53-58.4c0-1.02,0.49-1.64,1.46-1.95c0.49-0.13,0.93-0.18,1.42-0.04
			C1444.37,781.04,1444.9,781,1445.34,780.82L1445.34,780.82z"/>
		<path class="st3" d="M1526.67,816.22c0.5,14.61-10.9,26.86-25.51,27.35l-6.12,0.21c-14.6,0.49-26.85-10.92-27.35-25.51
			l-0.37-10.47c-0.5-14.61,10.9-26.86,25.51-27.35l6.12-0.21c14.6-0.49,26.85,10.91,27.35,25.51L1526.67,816.22 M1496.84,833.49
			c8.81,0.04,16-9.54,16.04-21.44c0.04-11.89-7.01-21.56-15.82-21.61c-8.81-0.04-16,9.54-16.04,21.44
			C1480.98,823.77,1488.03,833.45,1496.84,833.49L1496.84,833.49z"/>
		<path class="st3" d="M1573.81,819.56l14.64,20.95c0.93,1.38,0.62,2.26-0.98,2.71c-15,4.08-19.66-12.82-26.63-22.54
			c-2.35-3.33-7.59-1.55-7.45,2.53l0.58,17.66c0.04,1.86-0.84,2.8-2.71,2.75l-8.74-0.13c-1.6-0.04-2.84-1.29-2.84-2.88v-57.02
			c0-1.55,1.15-2.84,2.66-2.97c16.82-1.82,43.31-1.69,40.78,23.34c-0.18,1.64-0.93,3.24-2.13,4.39l-6.79,6.79
			C1572.83,816.5,1572.7,817.96,1573.81,819.56 M1569.49,797.22c0.11-2.86-2.11-5.26-4.98-5.4l-6.21-0.25
			c-2.86-0.1-5.3,2.11-5.4,4.98l-0.24,6.03c-0.11,2.86,2.11,5.26,4.98,5.4l6.21,0.25c2.86,0.1,5.3-2.12,5.4-4.98L1569.49,797.22
			L1569.49,797.22z"/>
		<path class="st3" d="M1598.08,783.13c0-1.46,1.2-2.71,2.71-2.71l17.75-0.22c17.48-0.18,31.86,13.4,32.04,30.31v1.95
			c0.18,16.91-13.89,30.75-31.42,30.93l-17.75,0.18c-1.46,0.04-2.71-1.15-2.71-2.66L1598.08,783.13 M1610.91,795.77l0.62,32.66
			c0.04,2.48,2.09,4.44,4.57,4.39l2.75-0.04c9.81-0.18,17.62-8.34,17.44-18.24l-0.09-5.77c-0.22-9.9-8.34-17.79-18.15-17.62
			l-2.75,0.09C1612.82,791.29,1610.86,793.33,1610.91,795.77L1610.91,795.77z"/>
		<path class="st3" d="M1676.36,828.52c-1.55,0.04-2.88,1.15-3.19,2.66l-1.95,9.27c-0.44,2.09-1.73,3.11-3.82,3.11h-8.88
			c-1.64,0-2.75-1.6-2.22-3.15l19.21-54.36c3.37-9.54,16.82-9.59,20.24-0.04l19.53,54.63c0.49,1.42-0.58,2.93-2.09,2.93h-9.36
			c-1.51,0-2.84-1.02-3.24-2.48l-2.8-10.65c-0.4-1.46-1.73-2.49-3.28-2.44L1676.36,828.52 M1678.49,815.08
			c-0.31,1.11,0.53,2.17,1.69,2.17l11.49-0.09c1.15,0,1.95-1.07,1.69-2.17l-5.9-21.39c-0.49-1.73-2.93-1.73-3.37,0L1678.49,815.08
			L1678.49,815.08z"/>
		<path class="st3" d="M1765.42,823.15c0.93,1.64,3.46,0.98,3.42-0.93l-0.89-38.96c-0.04-1.95,0.93-2.93,2.88-2.93h6.26
			c2.22,0,3.33,1.11,3.33,3.33v57.11c0,1.86-0.93,2.8-2.75,2.8h-11.94c-1.91,0-3.37-0.84-4.3-2.53l-23.16-42.11
			c-0.75-1.33-2.8-0.8-2.75,0.75l0.75,41c0.04,1.91-0.93,2.88-2.88,2.88h-6.12c-1.42,0-2.13-0.71-2.17-2.13l-1.6-52.41
			c-0.31-10.96,14.29-15.09,19.66-5.5L1765.42,823.15L1765.42,823.15z"/>
	</g>
	<g>
		<path class="st1" d="M531.25,727.32v-21.07h-3.1v-5.01h11.41v5.01h-3.1v21.07H531.25z"/>
		<path class="st1" d="M541.01,727.32v-26.08h7.94l2.19,15.9l2.18-15.9h8.02v26.08h-4.77v-18.79l-2.99,18.79h-4.68l-3.17-18.79
			v18.79H541.01z"/>
	</g>
	<g>
		<path class="st1" d="M809.68,781.69c-0.22,6.85-0.22,20.21-0.22,20.32c0,4.09,0,5.52,0.11,9.17l0.11,7.62
			c-0.22,6.18-0.33,12.92-5.52,18.22c-4.86,4.75-11.82,6.18-18.66,6.18c-7.07,0-14.35-1.77-18.99-7.07
			c-4.86-5.52-5.08-13.03-5.3-20.54l-0.11-8.61c0-11.93,0-13.25-0.22-25.07l0.66-0.66c4.53,0,6.74-0.11,11.26-0.33l0.66,0.77
			c-0.44,12.26-0.55,25.51-0.55,27.05c0,4.97,0.11,8.72,0.33,11.82c0.33,4.75,1.1,14.47,13.03,14.47c2.21,0,8.61-0.22,11.59-6.29
			c1.55-3.09,1.77-7.18,1.77-15.9c0-2.87-0.11-21.2-0.77-30.81l0.66-0.77c4.2,0,5.96-0.11,9.5-0.33L809.68,781.69z"/>
		<path class="st1" d="M876.71,781.69c-0.33,9.83-0.33,18.55-0.33,25.73c0,11.26,0.11,22.53,0.33,33.68l-0.66,0.77
			c-5.96,0.11-6.29,0.11-11.93,0.33l-0.77-0.55c-0.22-0.44-0.44-0.88-0.66-1.33c-3.53-6.4-5.3-9.61-9.17-16.45l-15.79-28.71
			l0.66,24.4c0.11,7.51,0.22,13.36,0.66,21.53l-0.55,0.77c-4.86,0.11-5.3,0.11-10.05,0.33l-0.55-0.77
			c0.22-6.29,0.44-12.59,0.44-22.53c0-23.41-0.33-31.47-0.55-36.88l0.55-0.77c5.63,0,6.51,0,12.7-0.33l0.77,0.66
			c3.98,7.51,8.06,14.69,10.38,18.88l14.69,26.61l-0.66-25.62c-0.22-12.37-0.33-13.8-0.66-19.43l0.55-0.77c4.31,0,5.63,0,10.05-0.33
			L876.71,781.69z"/>
		<path class="st1" d="M907.3,781.58c-0.22,6.07-0.44,13.03-0.44,27.83c0,15.57,0.22,22.75,0.66,31.8l-0.55,0.77
			c-5.41,0-6.4,0-11.26,0.22l-0.66-0.66c0.33-5.52,0.44-10.71,0.44-20.54c0-13.03,0-26.39-0.66-38.98l0.55-0.77
			c3.64,0,6.18-0.11,11.26-0.33L907.3,781.58z"/>
		<path class="st1" d="M951.03,841.98c-6.85,0-7.4,0-14.13,0.22l-0.77-0.66c-2.76-9.5-5.52-19.1-8.5-28.6
			c-2.87-9.06-5.74-18.11-8.61-27.16l-1.21-3.75l0.55-0.77c3.64,0,6.41-0.11,11.93-0.33l0.66,0.66c3.09,11.93,4.09,15.68,6.07,22.42
			l8.06,29.04l8.72-30.81c0.55-2.21,1.1-4.31,1.77-6.4c0.44-1.99,3.09-11.7,3.75-13.91l0.66-0.66c3.53,0,5.74-0.11,10.16-0.33
			l0.55,0.77c-1.44,4.42-8.17,25.73-9.72,30.59c-2.76,8.5-5.63,16.9-8.17,25.4c-0.33,1.21-0.77,2.43-1.1,3.64L951.03,841.98z"/>
		<path class="st1" d="M1020.38,834.25c-0.22,3.09-0.33,3.42-0.44,6.96l-0.66,0.66c-17.45,0.11-19.32,0.11-37.76,0.33l-0.55-0.77
			c0.55-10.05,0.55-12.81,0.55-36.55c0-12.7-0.22-17.34-0.66-22.86l0.66-0.77c14.24,0,22.19-0.11,38.1-0.33l0.66,0.77
			c-0.44,2.98-0.55,3.98-0.66,7.4l-0.66,0.77c-12.81-0.33-17.11-0.44-25.84-0.44c-0.22,7.4-0.22,9.17-0.22,16.9
			c10.38,0,11.7,0,24.4-0.22l0.55,0.77c-0.33,3.2-0.33,3.98-0.44,7.29l-0.66,0.77c-11.48-0.33-14.8-0.33-23.85-0.33
			c-0.11,7.18-0.22,10.16-0.11,19.21c11.37,0,14.69,0,27.05-0.44L1020.38,834.25z"/>
		<path class="st1" d="M1067.42,841.87c-2.76-4.86-4.75-7.73-8.94-14.13c-2.54-3.75-4.97-7.4-7.4-11.15c-2.21,0.11-2.76,0.11-4.64,0
			c0,1.21,0.11,15.68,0.66,24.62l-0.55,0.77c-4.64,0-6.29,0-11.15,0.22l-0.66-0.66c0.22-5.96,0.33-10.6,0.33-22.42
			c0-22.53-0.33-28.71-0.88-37.1l0.66-0.77c4.09,0,7.18,0,11.48-0.11h5.19c4.75,0,9.83,0.11,13.58,1.21
			c7.29,2.1,11.48,8.06,11.48,15.57c0,12.04-10.93,16.01-14.24,16.89c1.33,1.77,7.62,10.93,9.06,13.03
			c3.86,5.74,6.85,9.61,9.83,13.36l-0.55,0.77c-5.52,0.11-6.63,0.11-12.48,0.44L1067.42,841.87z M1051.74,808.63
			c3.75-0.22,13.25-0.77,13.25-10.49c0-6.07-4.09-8.17-7.62-8.72c-2.87-0.55-6.96-0.44-11.04-0.33c-0.11,9.61-0.11,10.49,0,19.54
			H1051.74z"/>
		<path class="st1" d="M1123.85,793.06c-2.43-1.66-6.96-4.75-14.58-4.75c-6.85,0-10.16,3.42-10.16,7.51
			c0,4.75,3.86,6.63,13.36,11.04c7.29,3.53,15.57,7.51,15.57,18c0,8.83-6.74,18.33-22.42,18.33c-9.17,0-15.24-2.87-17.34-3.86
			l-0.44-0.88c0.11-1.21,0.22-2.43,0.33-3.64c0.11-1.99,0.22-3.98,0.44-6.07l0.88-0.22c3.09,2.65,7.18,6.18,15.57,6.18
			c8.94,0,11.04-5.3,11.04-8.72c0-5.19-3.75-7.4-9.5-9.94l-4.2-1.99c-6.07-2.87-14.58-7.07-14.58-17.23
			c0-9.72,7.62-16.89,20.76-16.89c7.62,0,13.69,2.1,16.23,2.98l0.55,0.77c-0.44,3.64-0.44,4.42-0.66,8.94L1123.85,793.06z"/>
		<path class="st1" d="M1153.44,781.58c-0.22,6.07-0.44,13.03-0.44,27.83c0,15.57,0.22,22.75,0.66,31.8l-0.55,0.77
			c-5.41,0-6.4,0-11.26,0.22l-0.66-0.66c0.33-5.52,0.44-10.71,0.44-20.54c0-13.03,0-26.39-0.66-38.98l0.55-0.77
			c3.64,0,6.18-0.11,11.26-0.33L1153.44,781.58z"/>
		<path class="st1" d="M1207.66,789.53c-5.3-0.11-8.28-0.11-14.91-0.11c-0.22,12.81-0.22,32.46,0.44,51.68l-0.55,0.88
			c-4.86,0-7.07,0.11-11.48,0.33l-0.66-0.77c0.44-12.04,0.55-24.07,0.55-36.11c0-2.21,0-9.05-0.22-16.01
			c-6.41,0.11-7.84,0.11-15.24,0.33l-0.55-0.77c0.22-2.98,0.33-4.42,0.33-6.96l0.55-0.77c14.13-0.11,28.16-0.22,42.29-0.33
			l0.55,0.77c-0.33,3.2-0.33,3.98-0.44,7.18L1207.66,789.53z"/>
		<path class="st1" d="M1245.87,841.98c-5.52,0-7.4,0-11.15,0.22l-0.66-0.77c0.11-0.77,0.11-1.44,0.11-2.21
			c0.22-4.2,0.22-13.91,0.22-18.44v-3.75c-10.05-18.88-13.36-24.62-19.32-34.78l0.33-0.88c2.1-0.11,4.2-0.22,6.18-0.33
			c1.99-0.11,3.86-0.22,5.85-0.33l0.88,0.44c0.22,0.66,0.55,1.21,0.77,1.88c1.55,3.53,2.65,5.74,12.15,24.29
			c2.65-5.08,10.27-20.65,12.48-25.51l0.77-0.55c3.64,0,5.96-0.11,10.71-0.33l0.44,0.88c-3.09,5.41-8.17,14.13-11.26,19.54
			c-4.2,7.29-5.85,10.27-8.17,14.91c-0.11,1.99-0.11,3.86-0.11,6.63c0,4.53,0.11,11.37,0.44,18.44L1245.87,841.98z"/>
		<path class="st1" d="M1363.91,822.99c-3.75,14.24-15.02,20.21-27.5,20.21c-3.86,0-7.73-0.55-11.37-1.99
			c-13.25-5.3-16.78-18.44-16.78-29.59c0-19.1,10.71-31.69,28.71-31.69c17.34,0,28.27,12.26,28.27,32.13
			C1365.24,815.7,1364.9,819.45,1363.91,822.99z M1344.59,833.04c6.85-4.31,8.5-13.69,8.5-21.2c0-10.93-3.09-23.85-16.23-23.85
			c-2.43,0-5.19,0.44-7.73,1.99c-2.21,1.21-3.98,3.09-5.3,5.3c-2.87,4.97-3.31,12.81-3.31,15.9c0,14.02,5.41,23.96,16.34,23.96
			C1339.51,835.13,1342.27,834.47,1344.59,833.04z"/>
		<path class="st1" d="M1412.94,815.92c-9.5-0.22-14.24-0.33-20.43-0.33c0,6.52,0,17.67,0.55,25.51l-0.55,0.77
			c-5.3,0.11-5.96,0.11-11.48,0.33l-0.66-0.77c0.55-12.26,0.55-24.95,0.55-37.43c0-11.82-0.22-16.9-0.55-21.97l0.66-0.77h3.98
			c10.82,0,22.2,0,32.35-0.33l0.55,0.88c-0.33,3.2-0.44,4.09-0.55,7.4l-0.66,0.66c-11.82-0.33-14.47-0.33-24.07-0.44
			c-0.22,8.5-0.22,9.61-0.22,18c9.39,0,12.37-0.11,21.31-0.44l0.55,0.77c-0.33,3.42-0.33,3.64-0.66,7.4L1412.94,815.92z"/>
		<path class="st1" d="M1480.85,816.25c0,1.88,0.11,6.18,0.11,7.84c0,7.07-0.66,18.33-16.67,18.33c-3.09,0-5.08-0.44-6.96-0.88
			l-0.66-0.99v-7.07l0.66-0.66c1.77,0.55,3.09,0.99,5.19,0.99c6.29,0,6.63-4.75,6.74-8.39c0-2.1,0.11-6.18,0.11-11.37
			c0-10.71-0.11-21.42-0.66-32.02l0.55-0.77c5.19,0,5.85,0,11.26-0.22l0.66,0.77c-0.44,14.91-0.44,20.1-0.33,26.83V816.25z"/>
		<path class="st1" d="M1552.19,822.99c-3.75,14.24-15.02,20.21-27.5,20.21c-3.86,0-7.73-0.55-11.37-1.99
			c-13.25-5.3-16.78-18.44-16.78-29.59c0-19.1,10.71-31.69,28.71-31.69c17.34,0,28.27,12.26,28.27,32.13
			C1553.51,815.7,1553.18,819.45,1552.19,822.99z M1532.86,833.04c6.85-4.31,8.5-13.69,8.5-21.2c0-10.93-3.09-23.85-16.23-23.85
			c-2.43,0-5.19,0.44-7.73,1.99c-2.21,1.21-3.98,3.09-5.3,5.3c-2.87,4.97-3.31,12.81-3.31,15.9c0,14.02,5.41,23.96,16.34,23.96
			C1527.78,835.13,1530.54,834.47,1532.86,833.04z"/>
		<path class="st1" d="M1601.77,841.87c-2.76-4.86-4.75-7.73-8.94-14.13c-2.54-3.75-4.97-7.4-7.4-11.15c-2.21,0.11-2.76,0.11-4.64,0
			c0,1.21,0.11,15.68,0.66,24.62l-0.55,0.77c-4.64,0-6.29,0-11.15,0.22l-0.66-0.66c0.22-5.96,0.33-10.6,0.33-22.42
			c0-22.53-0.33-28.71-0.88-37.1l0.66-0.77c4.09,0,7.18,0,11.48-0.11h5.19c4.75,0,9.83,0.11,13.58,1.21
			c7.29,2.1,11.48,8.06,11.48,15.57c0,12.04-10.93,16.01-14.24,16.89c1.33,1.77,7.62,10.93,9.06,13.03
			c3.86,5.74,6.85,9.61,9.83,13.36l-0.55,0.77c-5.52,0.11-6.63,0.11-12.48,0.44L1601.77,841.87z M1586.09,808.63
			c3.75-0.22,13.25-0.77,13.25-10.49c0-6.07-4.09-8.17-7.62-8.72c-2.87-0.55-6.96-0.44-11.04-0.33c-0.11,9.61-0.11,10.49,0,19.54
			H1586.09z"/>
		<path class="st1" d="M1627.5,842.31l-0.55-0.77c0.33-9.83,0.33-19.54,0.33-24.29c0-21.09-0.33-28.6-0.66-35.22l0.55-0.77
			l13.25-0.33h5.52c9.5,0,24.29,0.44,30.48,16.12c1.44,3.53,2.21,7.73,2.21,13.14c0,13.25-5.52,25.07-18.55,29.59
			c-6.74,2.43-12.26,2.43-26.06,2.43L1627.5,842.31z M1656.54,831.49c7.07-3.75,10.16-12.15,10.16-22.08
			c0-20.65-14.58-20.65-20.98-20.65c-2.65,0-4.86,0.11-6.96,0.11c-0.22,6.07-0.22,8.83-0.22,25.73c0,4.31,0,12.37,0.22,19.43
			C1644.39,834.14,1651.46,834.25,1656.54,831.49z"/>
		<path class="st1" d="M1721.14,783.02c2.65,9.61,5.74,18.99,8.61,28.49c2.98,9.61,5.74,19.32,9.06,28.82
			c0.11,0.33,0.22,0.55,0.33,0.88l-0.66,0.66c-5.08,0-7.18,0.11-11.26,0.33l-0.66-0.66c-1.99-7.51-2.43-9.5-4.86-17.78
			c-8.5-0.11-10.82-0.11-19.32,0c-2.32,8.06-2.87,10.05-4.75,17.45l-0.66,0.66c-4.2,0-6.18,0.11-10.16,0.33l-0.55-0.77
			c3.75-10.16,4.97-13.69,10.82-31.8c5.74-17.56,6.4-19.54,8.94-27.72l0.66-0.66c4.2,0,7.29-0.11,13.47-0.33l0.66,0.77
			L1721.14,783.02z M1704.8,815.92c6.74,0.11,8.39,0.11,14.69,0l-6.96-24.96L1704.8,815.92z"/>
		<path class="st1" d="M1798.33,781.69c-0.33,9.83-0.33,18.55-0.33,25.73c0,11.26,0.11,22.53,0.33,33.68l-0.66,0.77
			c-5.96,0.11-6.29,0.11-11.93,0.33l-0.77-0.55c-0.22-0.44-0.44-0.88-0.66-1.33c-3.53-6.4-5.3-9.61-9.17-16.45l-15.79-28.71
			l0.66,24.4c0.11,7.51,0.22,13.36,0.66,21.53l-0.55,0.77c-4.86,0.11-5.3,0.11-10.05,0.33l-0.55-0.77
			c0.22-6.29,0.44-12.59,0.44-22.53c0-23.41-0.33-31.47-0.55-36.88l0.55-0.77c5.63,0,6.52,0,12.7-0.33l0.77,0.66
			c3.98,7.51,8.06,14.69,10.38,18.88l14.69,26.61l-0.66-25.62c-0.22-12.37-0.33-13.8-0.66-19.43l0.55-0.77c4.31,0,5.63,0,10.05-0.33
			L1798.33,781.69z"/>
	</g>
</g>
</svg>
